<svg width="152" height="37" viewBox="0 0 152 37" fill="none" xmlns="http://www.w3.org/2000/svg">
<path d="M56.2532 12.8955C57.591 14.195 58.6522 15.749 59.3735 17.4649C60.0947 19.1808 60.4614 21.0236 60.4516 22.8834C60.4491 23.7237 60.1123 24.5289 59.5149 25.1231C58.9175 25.7173 58.1079 26.0522 57.263 26.0547H39.0888C39.7037 27.4226 40.7032 28.5846 41.9668 29.4006C43.2305 30.2165 44.7044 30.6517 46.211 30.6536C47.9109 30.6564 49.5673 30.1194 50.9389 29.1206C51.2725 28.8674 51.6535 28.6828 52.0595 28.5776C52.4656 28.4723 52.8887 28.4485 53.3041 28.5075C53.7195 28.5665 54.1189 28.7071 54.4791 28.9212C54.8393 29.1353 55.1531 29.4186 55.4021 29.7545C55.8912 30.4336 56.098 31.2742 55.9792 32.1012C55.8605 32.9282 55.4255 33.6777 54.7648 34.1935C52.2974 36.0309 49.2932 37.0146 46.211 36.9943C44.3471 36.9987 42.5006 36.6369 40.7778 35.9295C39.0549 35.2221 37.4895 34.1832 36.1715 32.8723C34.8535 31.5615 33.8089 30.0045 33.0977 28.291C32.3865 26.5774 32.0227 24.741 32.0271 22.8871C32.0281 19.1408 33.521 15.5473 36.1791 12.893C38.8373 10.2386 42.4443 8.73952 46.211 8.7236C48.0807 8.71334 49.9333 9.07742 51.6585 9.79416C53.3838 10.5109 54.9463 11.5656 56.2532 12.8955ZM39.0888 19.7121H53.3842C52.7765 18.3297 51.7767 17.1535 50.5071 16.3275C49.2376 15.5015 47.7535 15.0616 46.2365 15.0616C44.7195 15.0616 43.2354 15.5015 41.9659 16.3275C40.6964 17.1535 39.6966 18.3297 39.0888 19.7121Z" fill="#684591"/>
<path d="M72.8635 3.17128V8.72008H78.4955C79.3407 8.72206 80.1507 9.05676 80.7485 9.651C81.3464 10.2452 81.6834 11.0507 81.6859 11.8914C81.6891 12.3087 81.6089 12.7226 81.4498 13.1088C81.2908 13.495 81.056 13.8459 80.7593 14.141C80.4625 14.4362 80.1097 14.6697 79.7214 14.8279C79.3331 14.9861 78.917 15.0659 78.4973 15.0626H72.8635V27.27C72.869 28.1663 73.2294 29.0243 73.8666 29.658C74.5038 30.2918 75.3665 30.6503 76.2676 30.6557H78.4992C78.9244 30.6454 79.3473 30.7198 79.7431 30.8745C80.1389 31.0292 80.4996 31.2611 80.8039 31.5565C81.1082 31.8519 81.3501 32.2049 81.5152 32.5946C81.6803 32.9844 81.7654 33.4031 81.7654 33.826C81.7654 34.249 81.6803 34.6677 81.5152 35.0574C81.3501 35.4472 81.1082 35.8002 80.8039 36.0956C80.4996 36.391 80.1389 36.6229 79.7431 36.7776C79.3473 36.9323 78.9244 37.0067 78.4992 36.9964H76.2676C73.6762 36.9909 71.1925 35.9646 69.36 34.1421C67.5276 32.3196 66.4957 29.8493 66.4902 27.2719V3.17128C66.4902 2.3302 66.8262 1.52358 67.4241 0.928846C68.0221 0.334116 68.8331 0 69.6788 0C70.5244 0 71.3354 0.334116 71.9334 0.928846C72.5314 1.52358 72.8673 2.3302 72.8673 3.17128H72.8635Z" fill="#684591"/>
<path d="M101.836 8.71973H100.549C97.1194 8.79776 93.8567 10.2058 91.4569 12.6432C89.057 15.0807 87.7101 18.3545 87.7036 21.766V33.6968C87.7036 35.3069 88.8572 36.7477 90.4628 36.9584C90.9133 37.0181 91.3713 36.9815 91.8064 36.851C92.2415 36.7206 92.6436 36.4993 92.9859 36.202C93.3281 35.9047 93.6026 35.5382 93.7911 35.1269C93.9796 34.7157 94.0777 34.2692 94.0788 33.8172V21.7735C94.069 20.898 94.2383 20.0297 94.5764 19.2213C94.9145 18.4129 95.4144 17.6814 96.0456 17.0711C97.1939 15.915 98.7243 15.2114 100.354 15.0905C100.354 15.0905 101.36 15.0623 101.836 15.0623C102.256 15.0653 102.672 14.9853 103.06 14.827C103.448 14.6687 103.801 14.4352 104.098 14.1401C104.394 13.845 104.629 13.4943 104.788 13.1081C104.948 12.722 105.028 12.3083 105.025 11.891C105.022 11.0507 104.686 10.2455 104.088 9.65131C103.491 9.05712 102.681 8.72221 101.836 8.71973Z" fill="#684591"/>
<path d="M128.339 36.9999H123.721C120.29 36.9218 117.026 35.5125 114.626 33.073C112.226 30.6336 110.88 27.3573 110.876 23.9442V18.0926C110.876 16.4825 112.032 15.0417 113.635 14.831C114.086 14.7713 114.544 14.808 114.98 14.9385C115.415 15.0691 115.817 15.2905 116.16 15.588C116.502 15.8854 116.777 16.2522 116.965 16.6636C117.154 17.0751 117.252 17.5219 117.253 17.9741V23.9442C117.244 24.8195 117.413 25.6876 117.751 26.4959C118.088 27.3042 118.588 28.0359 119.218 28.6466C120.391 29.8128 121.72 30.5802 123.568 30.678C123.568 30.678 127.902 30.7062 128.381 30.7062C128.803 30.6996 129.221 30.7769 129.613 30.9335C130.004 31.0901 130.359 31.3229 130.659 31.6183C130.958 31.9136 131.195 32.2655 131.356 32.6532C131.517 33.041 131.598 33.4568 131.595 33.8762C131.592 34.2956 131.504 34.7101 131.338 35.0954C131.171 35.4807 130.929 35.8291 130.625 36.1199C130.321 36.4108 129.962 36.6383 129.569 36.7891C129.175 36.9399 128.755 37.0109 128.334 36.998L128.339 36.9999Z" fill="#684591"/>
<path d="M117.24 9.27274C117.238 10.1131 116.901 10.9182 116.303 11.5124C115.706 12.1066 114.896 12.4415 114.052 12.444C113.214 12.4221 112.416 12.0807 111.824 11.4904C111.232 10.9002 110.891 10.1062 110.871 9.27274C110.873 8.43243 111.21 7.62725 111.807 7.03305C112.405 6.43886 113.214 6.10395 114.059 6.10147C114.479 6.09483 114.897 6.17239 115.286 6.32951C115.676 6.48663 116.029 6.7201 116.326 7.01601C116.623 7.31192 116.857 7.66423 117.014 8.05194C117.171 8.43964 117.248 8.85482 117.24 9.27274Z" fill="#2EA964"/>
<path d="M21.9717 12.5778C19.5832 10.1755 16.347 8.79426 12.9508 8.72754H12.8468C9.41731 8.80509 6.15416 10.2129 3.75392 12.6504C1.35368 15.0879 0.00651643 18.362 0 21.7738V33.825C0 34.6661 0.335932 35.4727 0.933897 36.0675C1.53186 36.6622 2.34288 36.9963 3.18853 36.9963C4.03418 36.9963 4.84519 36.6622 5.44316 36.0675C6.04113 35.4727 6.37706 34.6661 6.37706 33.825V21.7738C6.37148 20.8989 6.54271 20.0318 6.88058 19.2241C7.21845 18.4163 7.71607 17.6842 8.34389 17.0714C9.58828 15.8582 11.2052 15.072 12.896 15.072C14.5867 15.072 16.2036 15.8582 17.4499 17.0714C18.077 17.6847 18.5741 18.4168 18.9116 19.2245C19.2491 20.0322 19.4202 20.8991 19.4149 21.7738V33.825C19.4149 34.6661 19.7508 35.4727 20.3488 36.0675C20.9467 36.6622 21.7577 36.9963 22.6034 36.9963C23.449 36.9963 24.26 36.6622 24.858 36.0675C25.456 35.4727 25.7919 34.6661 25.7919 33.825V21.7738C25.7961 20.0662 25.4607 18.3746 24.8051 16.7964C24.1495 15.2182 23.1865 13.7845 21.9717 12.5778Z" fill="#684591"/>
<path d="M147.198 12.5778C144.81 10.176 141.575 8.79475 138.179 8.72754H138.079C134.65 8.80509 131.386 10.2129 128.986 12.6504C126.586 15.0879 125.239 18.362 125.232 21.7738V25.2855C125.232 26.1266 125.568 26.9332 126.166 27.528C126.764 28.1227 127.575 28.4568 128.421 28.4568C129.266 28.4568 130.077 28.1227 130.675 27.528C131.273 26.9332 131.609 26.1266 131.609 25.2855V21.7738C131.604 20.8989 131.775 20.0318 132.113 19.2241C132.451 18.4163 132.948 17.6842 133.576 17.0714C134.82 15.8582 136.437 15.072 138.128 15.072C139.819 15.072 141.436 15.8582 142.682 17.0714C143.309 17.6847 143.806 18.4168 144.144 19.2245C144.481 20.0322 144.652 20.8991 144.647 21.7738V25.2855C144.647 26.1266 144.983 26.9332 145.581 27.528C146.179 28.1227 146.99 28.4568 147.836 28.4568C148.681 28.4568 149.492 28.1227 150.09 27.528C150.688 26.9332 151.024 26.1266 151.024 25.2855V21.7738C151.028 20.0658 150.691 18.374 150.035 16.7958C149.378 15.2175 148.414 13.7841 147.198 12.5778Z" fill="#684591"/>
<path d="M150.756 30.7947H144.935C144.824 30.7947 144.734 30.8839 144.734 30.9941V36.7836C144.734 36.8937 144.824 36.983 144.935 36.983H150.756C150.866 36.983 150.956 36.8937 150.956 36.7836V30.9941C150.956 30.8839 150.866 30.7947 150.756 30.7947Z" fill="#2EA964"/>
</svg>
